<?xml version="1.0" encoding="UTF-8" standalone="no"?><!DOCTYPE svg PUBLIC "-//W3C//DTD SVG 1.1//EN" "http://www.w3.org/Graphics/SVG/1.1/DTD/svg11.dtd"><svg width="100%" height="100%" viewBox="0 0 60 57" version="1.1" xmlns="http://www.w3.org/2000/svg" xmlns:xlink="http://www.w3.org/1999/xlink" xml:space="preserve" xmlns:serif="http://www.serif.com/" style="fill-rule:evenodd;clip-rule:evenodd;stroke-linejoin:round;stroke-miterlimit:1.41421;"><circle cx="46.5" cy="13.5" r="13.5" style="fill:#f5821f;"/><g><path d="M29.824,27.176l-7.148,7.109l-2.5,-2.519c-0.469,-0.469 -1.221,-0.469 -1.69,0c-0.468,0.468 -0.468,1.22 0,1.689l3.34,3.359c0.235,0.235 0.537,0.352 0.85,0.352c0.303,0 0.605,-0.117 0.84,-0.352l7.998,-7.949c0.468,-0.469 0.468,-1.22 0,-1.689c-0.459,-0.459 -1.221,-0.469 -1.69,0Z" style="fill:#009100;fill-rule:nonzero;"/><path d="M45.576,35.32l0,-17.929c0,-0.479 -0.293,-0.918 -0.732,-1.104l-19.385,-8.086c-0.293,-0.127 -0.625,-0.127 -0.918,0l-19.385,8.086c-0.449,0.186 -0.732,0.625 -0.732,1.104l0,17.929c0,11.348 9.228,20.576 20.576,20.576c11.348,0 20.576,-9.238 20.576,-20.576Zm-20.576,18.184c-10.029,0 -18.184,-8.154 -18.184,-18.184l0,-17.129l18.184,-7.587l18.184,7.587l0,17.129c0,10.02 -8.155,18.184 -18.184,18.184Z" style="fill:#009100;fill-rule:nonzero;"/></g></svg>