<?xml version="1.0" encoding="UTF-8" standalone="no"?><!DOCTYPE svg PUBLIC "-//W3C//DTD SVG 1.1//EN" "http://www.w3.org/Graphics/SVG/1.1/DTD/svg11.dtd"><svg width="100%" height="100%" viewBox="0 0 61 59" version="1.1" xmlns="http://www.w3.org/2000/svg" xmlns:xlink="http://www.w3.org/1999/xlink" xml:space="preserve" xmlns:serif="http://www.serif.com/" style="fill-rule:evenodd;clip-rule:evenodd;stroke-linejoin:round;stroke-miterlimit:1.41421;"><path d="M19,34.75c0,-2.622 -2.128,-4.75 -4.75,-4.75l-9.5,0c-2.622,0 -4.75,2.128 -4.75,4.75l0,19.5c0,2.622 2.128,4.75 4.75,4.75l9.5,0c2.622,0 4.75,-2.128 4.75,-4.75l0,-19.5Z" style="fill:#f5821f;"/><clipPath id="_clip1"><rect id="_126473--1-" serif:id="126473 (1)" x="10.5" y="0" width="50" height="50"/></clipPath><g clip-path="url(#_clip1)"><path d="M58.343,33.992c1.025,-1.307 1.517,-2.708 1.454,-4.151c-0.063,-1.589 -0.774,-2.833 -1.359,-3.597c0.679,-1.694 0.941,-4.36 -1.328,-6.43c-1.663,-1.516 -4.486,-2.196 -8.396,-2.008c-2.75,0.126 -5.051,0.638 -5.145,0.659l-0.01,0c-0.523,0.094 -1.077,0.209 -1.642,0.335c-0.042,-0.67 0.073,-2.332 1.307,-6.075c1.464,-4.454 1.38,-7.863 -0.272,-10.142c-1.735,-2.395 -4.506,-2.583 -5.322,-2.583c-0.784,0 -1.505,0.324 -2.018,0.92c-1.16,1.349 -1.024,3.837 -0.878,4.988c-1.38,3.701 -5.249,12.777 -8.521,15.297c-0.063,0.041 -0.115,0.094 -0.168,0.146c-0.962,1.014 -1.61,2.112 -2.049,3.074c-0.617,-0.335 -1.318,-0.523 -2.07,-0.523l-6.378,0c-2.405,0 -4.35,1.955 -4.35,4.35l0,16.991c0,2.404 1.955,4.349 4.35,4.349l6.378,0c0.93,0 1.798,-0.293 2.509,-0.794l2.457,0.292c0.377,0.053 7.068,0.9 13.938,0.764c1.244,0.094 2.415,0.146 3.503,0.146c1.871,0 3.502,-0.146 4.862,-0.439c3.199,-0.68 5.384,-2.039 6.493,-4.036c0.847,-1.527 0.847,-3.043 0.711,-4.005c2.08,-1.882 2.446,-3.962 2.373,-5.426c-0.042,-0.847 -0.23,-1.569 -0.429,-2.102Zm-42.795,12.777c-0.847,0 -1.527,-0.69 -1.527,-1.526l0,-17.002c0,-0.847 0.69,-1.526 1.527,-1.526l6.378,0c0.847,0 1.526,0.69 1.526,1.526l0,16.991c0,0.847 -0.69,1.527 -1.526,1.527l-6.378,0l0,0.01Zm40.119,-14c-0.439,0.46 -0.523,1.16 -0.188,1.704c0,0.01 0.428,0.742 0.481,1.746c0.073,1.37 -0.586,2.583 -1.966,3.618c-0.492,0.376 -0.69,1.025 -0.481,1.61c0,0.011 0.449,1.391 -0.282,2.698c-0.701,1.254 -2.259,2.154 -4.622,2.656c-1.892,0.407 -4.465,0.48 -7.622,0.23l-0.147,0c-6.723,0.146 -13.519,-0.732 -13.592,-0.743l-0.011,0l-1.056,-0.125c0.063,-0.293 0.094,-0.607 0.094,-0.92l0,-17.002c0,-0.449 -0.073,-0.888 -0.198,-1.296c0.188,-0.701 0.711,-2.259 1.944,-3.587c4.695,-3.722 9.285,-16.279 9.484,-16.823c0.084,-0.22 0.104,-0.46 0.063,-0.701c-0.178,-1.171 -0.115,-2.603 0.136,-3.032c0.554,0.011 2.049,0.167 2.948,1.412c1.067,1.474 1.025,4.109 -0.125,7.601c-1.757,5.322 -1.903,8.124 -0.513,9.358c0.69,0.617 1.611,0.648 2.28,0.408c0.638,-0.146 1.244,-0.272 1.819,-0.366c0.042,-0.01 0.094,-0.021 0.136,-0.031c3.21,-0.701 8.961,-1.13 10.958,0.69c1.694,1.547 0.491,3.597 0.355,3.816c-0.387,0.586 -0.272,1.349 0.251,1.819c0.011,0.011 1.108,1.046 1.161,2.437c0.042,0.93 -0.398,1.882 -1.307,2.823Z" style="fill:#009100;fill-rule:nonzero;"/></g></svg>