<?xml version="1.0" encoding="UTF-8" standalone="no"?><!DOCTYPE svg PUBLIC "-//W3C//DTD SVG 1.1//EN" "http://www.w3.org/Graphics/SVG/1.1/DTD/svg11.dtd"><svg width="100%" height="100%" viewBox="0 0 54 57" version="1.1" xmlns="http://www.w3.org/2000/svg" xmlns:xlink="http://www.w3.org/1999/xlink" xml:space="preserve" xmlns:serif="http://www.serif.com/" style="fill-rule:evenodd;clip-rule:evenodd;stroke-linejoin:round;stroke-miterlimit:1.41421;"><circle cx="13" cy="44" r="13" style="fill:#f5821f;"/><g><path d="M29,0c-13.785,0 -25,11.215 -25,25c0,13.785 11.215,25 25,25c13.785,0 25,-11.215 25,-25c0,-13.785 -11.215,-25 -25,-25Zm0,47.273c-12.281,0 -22.273,-9.992 -22.273,-22.273c0,-12.281 9.992,-22.273 22.273,-22.273c12.281,0 22.273,9.992 22.273,22.273c0,12.281 -9.992,22.273 -22.273,22.273Z" style="fill:#009100;fill-rule:nonzero;"/><path d="M39.448,29.814l-5.861,-3.598c-1.888,-1.159 -4.162,-3.882 -4.964,-5.946l-4.602,-11.825c-0.274,-0.7 -1.063,-1.048 -1.766,-0.776c-0.701,0.273 -1.049,1.064 -0.776,1.766l4.602,11.824c1.018,2.615 3.688,5.814 6.08,7.282l5.861,3.597c0.223,0.137 0.469,0.203 0.712,0.203c0.458,0 0.906,-0.231 1.162,-0.65c0.395,-0.644 0.194,-1.483 -0.448,-1.877Z" style="fill:#009100;fill-rule:nonzero;"/></g></svg>