<?xml version="1.0" encoding="UTF-8" standalone="no"?>
<!DOCTYPE svg PUBLIC "-//W3C//DTD SVG 1.1//EN" "http://www.w3.org/Graphics/SVG/1.1/DTD/svg11.dtd">
<svg width="100%" height="100%" viewBox="0 0 2592 863" version="1.1" xmlns="http://www.w3.org/2000/svg" xmlns:xlink="http://www.w3.org/1999/xlink" xml:space="preserve" xmlns:serif="http://www.serif.com/" style="fill-rule:evenodd;clip-rule:evenodd;stroke-linejoin:round;stroke-miterlimit:2;">
    <g transform="matrix(4.16667,0,0,4.16667,0,0)">
        <path d="M101.527,0.893C112.525,0.893 123.109,2.689 133.015,5.997L133.015,199.546C123.109,202.854 112.525,204.651 101.527,204.651C45.998,204.651 0.966,159.028 0.966,102.772C0.966,46.516 45.998,0.893 101.527,0.893Z" style="fill:rgb(245,130,31);"/>
        <path d="M133.015,26.188L133.015,54.527L108.033,46.123L88.597,76.662C92.989,75.173 97.152,74.249 101.073,73.924C105.023,73.61 109.782,74.409 115.365,76.288C121.521,78.359 126.828,82.108 131.237,87.56C131.87,88.346 132.461,89.161 133.015,90.01L133.015,135.167C132.746,135.781 132.467,136.399 132.178,137.02C128.471,144.992 123.359,152.531 116.827,159.674C110.281,166.77 102.231,171.999 92.648,175.269C83.049,178.573 72.418,178.243 60.769,174.324C53.828,171.989 47.96,168.171 43.243,162.856C38.495,157.531 35.637,150.918 34.656,142.972C33.705,135.036 35.179,126.312 39.185,116.797L64.505,125.316C59.488,139.181 62.366,147.925 73.08,151.529C79.025,153.53 84.942,152.514 90.754,148.497C96.582,144.445 101.381,138.403 105.136,130.327C108.505,123.083 109.822,116.351 109.071,110.085C108.334,103.865 104.835,99.681 98.587,97.58C90.53,94.869 83.212,96.496 76.634,102.46L54.551,93.587L101.111,15.454L133.015,26.188Z" style="fill:white;"/>
        <path d="M181.032,52.045L151.875,52.045L151.875,5.726L160.438,5.726L160.438,43.863L176.451,43.863L176.451,5.726L185.014,5.726L185.014,43.863L189.024,43.863L189.024,60.691L181.032,60.691L181.032,52.045ZM223.604,13.908L201.817,13.908L201.817,23.671L221.831,23.671L221.831,31.853L201.817,31.853L201.817,43.863L224.584,43.863L224.584,52.045L193.426,52.045L193.426,5.726L223.604,5.726L223.604,13.908ZM239.884,31.272L239.884,52.045L231.32,52.045L231.32,5.726L239.884,5.726L239.884,23.283L255.896,23.283L255.896,5.726L264.459,5.726L264.459,52.045L255.896,52.045L255.896,31.272L239.884,31.272ZM290.293,52.045L281.73,52.045L281.73,13.908L269.326,13.908L269.326,5.726L302.706,5.726L302.706,13.908L290.293,13.908L290.293,52.045ZM316.364,52.045L307.801,52.045L307.801,5.726L326.558,5.726C329.169,5.726 331.436,6.328 333.359,7.532C335.274,8.735 336.751,10.457 337.768,12.692C338.789,14.939 339.294,17.563 339.294,20.563C339.294,22.423 338.921,24.487 338.189,26.756C337.455,29.025 336.112,31.013 334.16,32.745C332.196,34.477 329.548,35.336 326.197,35.336L316.364,35.336L316.364,52.045ZM324.318,27.347C327.063,27.347 328.825,26.617 329.586,25.154C330.348,23.692 330.731,22.004 330.731,20.101C330.731,17.854 330.14,16.229 328.948,15.219C327.758,14.219 325.832,13.714 323.166,13.714L316.364,13.714L316.364,27.347L324.318,27.347Z" style="fill-rule:nonzero;"/>
        <path d="M190.379,125.126L182.597,125.126L182.597,91.579L182.487,91.579L175.029,125.126L166.848,125.126L159.558,91.579L159.446,91.579L159.446,125.126L151.665,125.126L151.665,78.806L163.852,78.806L171.079,110.805L171.189,110.805L178.322,78.806L190.379,78.806L190.379,125.126ZM205.748,111.062L205.86,111.062L221.73,78.806L230.505,78.806L230.505,125.126L222.722,125.126L222.722,92.096L222.612,92.096L206.306,125.126L197.967,125.126L197.967,78.806L205.748,78.806L205.748,111.062ZM247.543,125.126L239.204,125.126L239.204,78.806L247.543,78.806L247.543,97.644L262.791,78.806L273.596,78.806L257.29,97.772L274.533,125.126L263.792,125.126L251.428,104.805L247.543,109.45L247.543,125.126ZM287.1,125.126L278.762,125.126L278.762,78.806L297.025,78.806C299.567,78.806 301.774,79.408 303.648,80.612C305.513,81.816 306.951,83.537 307.942,85.773C308.935,88.02 309.427,90.644 309.427,93.643C309.427,95.504 309.064,97.568 308.35,99.837C307.636,102.106 306.328,104.094 304.427,105.826C302.515,107.558 299.938,108.417 296.674,108.417L287.1,108.417L287.1,125.126ZM294.845,100.428C297.518,100.428 299.233,99.698 299.974,98.235C300.717,96.773 301.089,95.085 301.089,93.182C301.089,90.935 300.512,89.31 299.353,88.3C298.194,87.3 296.32,86.795 293.723,86.795L287.1,86.795L287.1,100.428L294.845,100.428ZM333.301,77.58C335.072,77.58 336.982,77.881 339.033,78.472C341.082,79.064 343.151,80.204 345.219,81.892C347.297,83.59 349.031,86.086 350.412,89.396C351.795,92.709 352.491,96.901 352.491,101.977C352.491,107.03 351.795,111.224 350.412,114.535C349.031,117.847 347.286,120.353 345.2,122.041C343.113,123.739 341.037,124.878 338.977,125.47C336.908,126.061 335.016,126.351 333.301,126.351C331.586,126.351 329.692,126.05 327.615,125.459C325.546,124.867 323.459,123.718 321.372,122.018C319.286,120.32 317.55,117.815 316.169,114.513C314.787,111.213 314.102,107.03 314.102,101.977C314.102,96.901 314.787,92.719 316.169,89.418C317.55,86.118 319.286,83.613 321.354,81.913C323.432,80.214 325.5,79.064 327.56,78.472C329.629,77.881 331.539,77.58 333.301,77.58ZM333.291,118.169C334.542,118.169 335.786,117.912 337.038,117.407C338.281,116.9 339.45,116.02 340.525,114.793C341.611,113.558 342.483,111.88 343.151,109.761C343.82,107.632 344.152,105.041 344.152,101.977C344.152,98.902 343.82,96.299 343.151,94.171C342.483,92.042 341.611,90.364 340.535,89.139C339.459,87.902 338.292,87.031 337.038,86.526C335.786,86.021 334.542,85.762 333.291,85.762C332.048,85.762 330.796,86.021 329.545,86.537C328.291,87.052 327.122,87.913 326.047,89.139C324.972,90.364 324.109,92.042 323.441,94.171C322.773,96.299 322.44,98.902 322.44,101.977C322.44,105.041 322.773,107.632 323.441,109.761C324.109,111.88 324.981,113.558 326.058,114.783C327.133,116.008 328.301,116.879 329.554,117.396C330.805,117.912 332.048,118.169 333.291,118.169Z" style="fill-rule:nonzero;"/>
        <path d="M161.361,198.194L152.798,198.194L152.798,151.874L161.361,151.874L161.361,170.711L177.023,151.874L188.119,151.874L171.373,170.839L189.081,198.194L178.049,198.194L165.353,177.872L161.361,182.517L161.361,198.194ZM201.99,198.194L193.426,198.194L193.426,151.874L212.182,151.874C214.792,151.874 217.06,152.476 218.983,153.679C220.898,154.883 222.374,156.604 223.394,158.84C224.413,161.087 224.918,163.711 224.918,166.711C224.918,168.571 224.545,170.635 223.813,172.904C223.079,175.173 221.736,177.162 219.783,178.893C217.82,180.625 215.172,181.484 211.82,181.484L201.99,181.484L201.99,198.194ZM209.944,173.495C212.687,173.495 214.449,172.765 215.21,171.302C215.972,169.84 216.355,168.152 216.355,166.249C216.355,164.002 215.763,162.378 214.572,161.367C213.381,160.367 211.458,159.862 208.791,159.862L201.99,159.862L201.99,173.495L209.944,173.495ZM261.726,160.056L239.94,160.056L239.94,169.819L259.952,169.819L259.952,178.001L239.94,178.001L239.94,190.011L262.706,190.011L262.706,198.194L231.547,198.194L231.547,151.874L261.726,151.874L261.726,160.056ZM271.214,175.044L271.214,151.874L299.495,151.874L299.495,190.011L303.496,190.011L303.496,206.838L295.503,206.838L295.503,198.194L272.862,198.194L272.862,206.838L264.869,206.838L264.869,190.011C266.25,190.011 267.411,189.559 268.337,188.645C269.27,187.732 269.984,186.162 270.469,183.946C270.966,181.732 271.214,178.765 271.214,175.044ZM290.931,190.011L290.931,160.056L279.206,160.056L279.206,175.044C279.206,179.335 278.938,182.57 278.396,184.721C277.853,186.882 277.062,188.645 276.014,190.011L290.931,190.011ZM315.393,184.129L315.508,184.129L331.806,151.874L340.819,151.874L340.819,198.194L332.826,198.194L332.826,165.163L332.712,165.163L315.965,198.194L307.402,198.194L307.402,151.874L315.393,151.874L315.393,184.129ZM366.538,198.194L357.974,198.194L357.974,160.056L345.571,160.056L345.571,151.874L378.951,151.874L378.951,160.056L366.538,160.056L366.538,198.194ZM398.744,150.647C400.563,150.647 402.525,150.948 404.63,151.539C406.735,152.131 408.86,153.271 410.984,154.959C413.118,156.657 414.899,159.153 416.318,162.464C417.737,165.776 418.452,169.968 418.452,175.044C418.452,180.097 417.737,184.291 416.318,187.602C414.899,190.914 413.107,193.42 410.966,195.108C408.821,196.807 406.688,197.945 404.574,198.537C402.449,199.128 400.506,199.418 398.744,199.418C396.982,199.418 395.037,199.118 392.904,198.526C390.781,197.935 388.636,196.785 386.493,195.085C384.35,193.387 382.568,190.882 381.15,187.581C379.731,184.281 379.026,180.097 379.026,175.044C379.026,169.968 379.731,165.786 381.15,162.485C382.568,159.185 384.35,156.68 386.473,154.98C388.609,153.282 390.732,152.131 392.847,151.539C394.972,150.948 396.933,150.647 398.744,150.647ZM398.735,191.236C400.019,191.236 401.297,190.979 402.582,190.474C403.859,189.967 405.058,189.087 406.164,187.86C407.278,186.625 408.174,184.948 408.86,182.829C409.545,180.699 409.889,178.108 409.889,175.044C409.889,171.969 409.545,169.366 408.86,167.238C408.174,165.109 407.278,163.432 406.174,162.207C405.069,160.969 403.869,160.098 402.582,159.593C401.297,159.088 400.019,158.829 398.735,158.829C397.458,158.829 396.171,159.088 394.885,159.604C393.6,160.119 392.399,160.98 391.293,162.207C390.189,163.432 389.305,165.109 388.618,167.238C387.931,169.366 387.589,171.969 387.589,175.044C387.589,178.108 387.931,180.699 388.618,182.829C389.305,184.948 390.198,186.625 391.304,187.85C392.408,189.075 393.609,189.946 394.896,190.463C396.18,190.979 397.458,191.236 398.735,191.236ZM425.322,151.874L445.268,151.874C448.383,151.874 450.879,152.486 452.765,153.722C454.651,154.959 455.983,156.474 456.747,158.271C457.518,160.066 457.898,161.893 457.898,163.743C457.898,166.637 457.414,168.733 456.452,170.044C455.478,171.357 454.289,172.42 452.869,173.228C457.089,175.012 459.203,178.754 459.203,184.464C459.203,186.28 458.889,188.022 458.27,189.678C457.641,191.333 456.774,192.774 455.659,193.999C454.737,195.001 453.822,195.785 452.918,196.354C452.002,196.935 450.744,197.377 449.135,197.709C447.526,198.032 445.373,198.194 442.686,198.194L425.322,198.194L425.322,151.874ZM433.551,190.205L444.068,190.205C448.45,190.205 450.64,187.947 450.64,183.42C450.64,181.528 450.05,180.118 448.86,179.194C447.668,178.27 446.201,177.807 444.458,177.807L433.551,177.807L433.551,190.205ZM433.551,170.002L443.61,170.002C445.42,170.002 446.878,169.571 447.993,168.722C449.106,167.872 449.669,166.571 449.669,164.829C449.669,163.023 449.145,161.744 448.088,160.991C447.04,160.239 445.478,159.862 443.391,159.862L433.551,159.862L433.551,170.002ZM471.331,198.194L462.301,198.194L476.923,151.874L486.82,151.874L501.27,198.194L491.964,198.194L489.325,188.635L474.188,188.635L471.331,198.194ZM476.475,180.646L486.924,180.646L481.847,162.335L481.734,162.335L476.475,180.646ZM515.045,177.42L515.045,198.194L506.482,198.194L506.482,151.874L515.045,151.874L515.045,169.432L531.057,169.432L531.057,151.874L539.621,151.874L539.621,198.194L531.057,198.194L531.057,177.42L515.045,177.42ZM555.577,184.129L555.692,184.129L571.99,151.874L581.001,151.874L581.001,198.194L573.009,198.194L573.009,165.163L572.896,165.163L556.149,198.194L547.585,198.194L547.585,151.874L555.577,151.874L555.577,184.129ZM621.876,198.194L613.483,198.194L613.483,180.065L607.939,180.065L597.471,198.194L586.964,198.194L598.557,180.065C595.756,179.356 593.327,177.753 591.29,175.259C589.241,172.776 588.221,169.667 588.221,165.936C588.221,163.486 588.755,161.174 589.823,159.012C590.88,156.862 592.394,155.131 594.357,153.831C596.319,152.529 598.575,151.874 601.137,151.874L621.876,151.874L621.876,198.194ZM613.483,172.26L613.483,159.862L602.786,159.862C601.434,159.862 600.301,160.163 599.395,160.755C598.491,161.346 597.834,162.087 597.414,162.979C596.995,163.884 596.786,164.776 596.786,165.679C596.786,167.689 597.347,169.292 598.482,170.475C599.614,171.668 601.263,172.26 603.415,172.26L613.483,172.26Z" style="fill-rule:nonzero;"/>
    </g>
</svg>
