<svg width="18" height="21" viewBox="0 0 18 21" fill="none" xmlns="http://www.w3.org/2000/svg">
	<path d="M15.304 3.90135C13.6205 2.21385 11.3786 1.28572 8.99598 1.28572C4.07812 1.28572 0.0763393 5.28751 0.0763393 10.2054C0.0763393 11.7763 0.486161 13.3112 1.26562 14.6652L0 19.2857L4.72902 18.0442C6.0308 18.7554 7.49732 19.129 8.99196 19.129H8.99598C13.9098 19.129 18 15.1272 18 10.2094C18 7.82679 16.9875 5.58885 15.304 3.90135ZM8.99598 17.6263C7.66205 17.6263 6.35625 17.2688 5.2192 16.5938L4.95 16.433L2.14554 17.1683L2.89286 14.4321L2.71607 14.1509C1.97277 12.9696 1.58304 11.6076 1.58304 10.2054C1.58304 6.1192 4.90982 2.79242 9 2.79242C10.9808 2.79242 12.8411 3.56385 14.2393 4.96608C15.6375 6.36831 16.4973 8.22858 16.4933 10.2094C16.4933 14.2996 13.0821 17.6263 8.99598 17.6263ZM13.0621 12.0737C12.8411 11.9612 11.7442 11.4228 11.5393 11.3505C11.3344 11.2741 11.1857 11.238 11.0371 11.463C10.8884 11.688 10.4625 12.1862 10.3299 12.3388C10.2013 12.4875 10.0688 12.5076 9.84777 12.3951C8.53795 11.7402 7.67813 11.2259 6.81429 9.74331C6.58527 9.34956 7.0433 9.37768 7.4692 8.5259C7.54152 8.37724 7.50536 8.24867 7.44911 8.13617C7.39286 8.02367 6.94688 6.92679 6.76205 6.48081C6.58125 6.04688 6.39643 6.10715 6.25982 6.09911C6.13125 6.09108 5.98259 6.09108 5.83393 6.09108C5.68527 6.09108 5.4442 6.14733 5.23929 6.36831C5.03437 6.59331 4.45982 7.1317 4.45982 8.22858C4.45982 9.32545 5.25938 10.3862 5.36786 10.5348C5.48036 10.6835 6.93884 12.9335 9.17679 13.9018C10.5911 14.5125 11.1455 14.5647 11.8527 14.4603C12.2826 14.396 13.1705 13.9219 13.3554 13.3996C13.5402 12.8772 13.5402 12.4313 13.4839 12.3388C13.4317 12.2384 13.283 12.1821 13.0621 12.0737Z" fill="#31BB31" />
</svg>
