<svg viewBox="0 0 60 57" xmlns="http://www.w3.org/2000/svg" fill-rule="evenodd" clip-rule="evenodd" stroke-linejoin="round" stroke-miterlimit="1.414"><circle cx="46.5" cy="13.5" r="13.5" fill="#f5821f"/><g fill="#009100" fill-rule="nonzero"><path d="M29.824 27.176l-7.148 7.109-2.5-2.519a1.19 1.19 0 00-1.69 0 1.191 1.191 0 000 1.689l3.34 3.359a1.189 1.189 0 001.69 0l7.998-7.949a1.191 1.191 0 000-1.689 1.2 1.2 0 00-1.69 0z"/><path d="M45.576 35.32V17.391c0-.479-.293-.918-.732-1.104L25.459 8.201a1.154 1.154 0 00-.918 0L5.156 16.287a1.191 1.191 0 00-.732 1.104V35.32c0 11.348 9.228 20.576 20.576 20.576s20.576-9.238 20.576-20.576zM25 53.504c-10.029 0-18.184-8.154-18.184-18.184V18.191L25 10.604l18.184 7.587V35.32c0 10.02-8.155 18.184-18.184 18.184z"/></g></svg>