<svg viewBox="0 0 61 59" xmlns="http://www.w3.org/2000/svg" fill-rule="evenodd" clip-rule="evenodd" stroke-linejoin="round" stroke-miterlimit="1.414"><path d="M19 34.75A4.752 4.752 0 0014.25 30h-9.5A4.752 4.752 0 000 34.75v19.5A4.752 4.752 0 004.75 59h9.5A4.752 4.752 0 0019 54.25v-19.5z" fill="#f5821f"/><clipPath id="_clip1"><path id="_126473--1-" d="M10.5 0h50v50h-50z"/></clipPath><g clip-path="url(#_clip1)"><path d="M58.343 33.992c1.025-1.307 1.517-2.708 1.454-4.151-.063-1.589-.774-2.833-1.359-3.597.679-1.694.941-4.36-1.328-6.43-1.663-1.516-4.486-2.196-8.396-2.008-2.75.126-5.051.638-5.145.659h-.01c-.523.094-1.077.209-1.642.335-.042-.67.073-2.332 1.307-6.075 1.464-4.454 1.38-7.863-.272-10.142C41.217.188 38.446 0 37.63 0c-.784 0-1.505.324-2.018.92-1.16 1.349-1.024 3.837-.878 4.988-1.38 3.701-5.249 12.777-8.521 15.297-.063.041-.115.094-.168.146a11.221 11.221 0 00-2.049 3.074 4.312 4.312 0 00-2.07-.523h-6.378a4.353 4.353 0 00-4.35 4.35v16.991a4.353 4.353 0 004.35 4.349h6.378c.93 0 1.798-.293 2.509-.794l2.457.292c.377.053 7.068.9 13.938.764 1.244.094 2.415.146 3.503.146 1.871 0 3.502-.146 4.862-.439 3.199-.68 5.384-2.039 6.493-4.036.847-1.527.847-3.043.711-4.005 2.08-1.882 2.446-3.962 2.373-5.426a7.058 7.058 0 00-.429-2.102zM15.548 46.769c-.847 0-1.527-.69-1.527-1.526V28.241c0-.847.69-1.526 1.527-1.526h6.378c.847 0 1.526.69 1.526 1.526v16.991c0 .847-.69 1.527-1.526 1.527h-6.378v.01zm40.119-14a1.404 1.404 0 00-.188 1.704c0 .01.428.742.481 1.746.073 1.37-.586 2.583-1.966 3.618a1.424 1.424 0 00-.481 1.61c0 .011.449 1.391-.282 2.698-.701 1.254-2.259 2.154-4.622 2.656-1.892.407-4.465.48-7.622.23h-.147c-6.723.146-13.519-.732-13.592-.743h-.011l-1.056-.125c.063-.293.094-.607.094-.92V28.241a4.44 4.44 0 00-.198-1.296c.188-.701.711-2.259 1.944-3.587 4.695-3.722 9.285-16.279 9.484-16.823.084-.22.104-.46.063-.701-.178-1.171-.115-2.603.136-3.032.554.011 2.049.167 2.948 1.412 1.067 1.474 1.025 4.109-.125 7.601-1.757 5.322-1.903 8.124-.513 9.358.69.617 1.611.648 2.28.408a29.75 29.75 0 011.819-.366l.136-.031c3.21-.701 8.961-1.13 10.958.69 1.694 1.547.491 3.597.355 3.816-.387.586-.272 1.349.251 1.819.011.011 1.108 1.046 1.161 2.437.042.93-.398 1.882-1.307 2.823z" fill="#009100" fill-rule="nonzero"/></g></svg>