<svg viewBox="0 0 54 57" xmlns="http://www.w3.org/2000/svg" fill-rule="evenodd" clip-rule="evenodd" stroke-linejoin="round" stroke-miterlimit="1.414"><circle cx="13" cy="44" r="13" fill="#f5821f"/><g fill="#009100" fill-rule="nonzero"><path d="M29 0C15.215 0 4 11.215 4 25s11.215 25 25 25 25-11.215 25-25S42.785 0 29 0zm0 47.273C16.719 47.273 6.727 37.281 6.727 25 6.727 12.719 16.719 2.727 29 2.727c12.281 0 22.273 9.992 22.273 22.273 0 12.281-9.992 22.273-22.273 22.273z"/><path d="M39.448 29.814l-5.861-3.598c-1.888-1.159-4.162-3.882-4.964-5.946L24.021 8.445a1.365 1.365 0 00-2.542.99l4.602 11.824c1.018 2.615 3.688 5.814 6.08 7.282l5.861 3.597a1.357 1.357 0 001.874-.447 1.364 1.364 0 00-.448-1.877z"/></g></svg>