<svg viewBox="0 0 2592 863" xmlns="http://www.w3.org/2000/svg" fill-rule="evenodd" clip-rule="evenodd" stroke-linejoin="round" stroke-miterlimit="2"><path d="M423.03 3.72c45.825 0 89.925 7.484 131.2 21.268v806.454c-41.275 13.784-85.375 21.271-131.2 21.271-231.372 0-419.005-190.096-419.005-424.496 0-234.4 187.633-424.496 419.005-424.496z" fill="#f5821f"/><path d="M554.23 109.117v118.079l-104.092-35.017-80.984 127.246c18.3-6.204 35.646-10.054 51.984-11.408 16.458-1.308 36.287 2.02 59.55 9.85 25.65 8.63 47.762 24.25 66.133 46.967 2.638 3.275 5.1 6.67 7.409 10.208v188.154a374.183 374.183 0 01-3.488 7.721c-15.446 33.217-36.746 64.63-63.962 94.392-27.275 29.567-60.817 51.354-100.746 64.98-39.996 13.766-84.292 12.39-132.83-3.938-28.92-9.73-53.37-25.638-73.025-47.784-19.783-22.187-31.691-49.741-35.779-82.85-3.962-33.067 2.18-69.417 18.871-109.062l105.5 35.495c-20.904 57.771-8.912 94.205 35.73 109.221 24.77 8.338 49.424 4.105 73.641-12.633 24.283-16.883 44.28-42.058 59.925-75.708 14.038-30.184 19.525-58.234 16.396-84.342-3.071-25.917-17.65-43.35-43.684-52.104-33.57-11.296-64.062-4.517-91.47 20.333l-92.013-36.97 194-325.555 132.934 44.725z" fill="#fff"/><path d="M754.3 216.854H632.814V23.858h35.68v158.905h66.72V23.858h35.68v158.905H787.6v70.116h-33.3v-36.025zM931.685 57.95h-90.78v40.68h83.393v34.09h-83.392v50.043h94.862v34.091H805.942V23.858h125.742V57.95zm67.833 72.35v86.554h-35.683V23.858h35.683v73.155h66.717V23.858h35.68v192.996h-35.68V130.3h-66.717zm210.038 86.554h-35.68V57.95h-51.682V23.858h139.083V57.95h-51.72v158.904zm108.63 0h-35.68V23.858h78.154c10.88 0 20.325 2.509 28.338 7.525 7.98 5.013 14.133 12.188 18.37 21.5 4.255 9.363 6.36 20.296 6.36 32.796 0 7.75-1.555 16.35-4.605 25.804-3.058 9.455-8.654 17.738-16.788 24.955-8.183 7.216-19.216 10.795-33.179 10.795h-40.97v69.621zm33.141-102.908c11.438 0 18.78-3.042 21.95-9.138 3.175-6.091 4.77-13.125 4.77-21.054 0-9.362-2.462-16.133-7.428-20.341-4.959-4.167-12.984-6.271-24.092-6.271h-28.342v56.804h33.142zM793.246 521.359h-32.425v-139.78h-.458l-31.075 139.78h-34.087l-30.375-139.78h-.467v139.78h-32.421v-193h50.78l30.112 133.329h.458l29.72-133.33h50.238v193zm64.038-58.6h.467l66.125-134.4h36.562v193H928.01V383.734h-.458L859.61 521.359h-34.746v-193h32.421v134.4zm174.146 58.6h-34.746v-193h34.746v78.491l63.533-78.491h45.021l-67.941 79.025 71.845 113.975h-44.754l-51.516-84.671-16.188 19.354v65.317zm164.821 0h-34.742v-193h76.096c10.592 0 19.788 2.508 27.596 7.525 7.77 5.016 13.763 12.187 17.892 21.504 4.137 9.362 6.187 20.296 6.187 32.791 0 7.755-1.512 16.355-4.487 25.809s-8.425 17.737-16.346 24.954c-7.967 7.217-18.704 10.796-32.304 10.796h-39.892v69.62zm32.27-102.909c11.138 0 18.284-3.041 21.372-9.137 3.096-6.092 4.646-13.125 4.646-21.054 0-9.363-2.405-16.134-7.234-20.342-4.829-4.167-12.637-6.27-23.458-6.27h-27.596v56.803h32.27zm160.234-95.2c7.38 0 15.338 1.254 23.884 3.717 8.537 2.467 17.158 7.217 25.775 14.25 8.658 7.075 15.883 17.475 21.637 31.267 5.763 13.804 8.663 31.27 8.663 52.42 0 21.055-2.9 38.53-8.663 52.326-5.754 13.8-13.025 24.241-21.717 31.275-8.695 7.075-17.345 11.82-25.929 14.287-8.62 2.463-16.504 3.67-23.65 3.67-7.146 0-15.037-1.253-23.691-3.716-8.621-2.466-17.317-7.254-26.013-14.337-8.692-7.075-15.925-17.513-21.68-31.271-5.757-13.75-8.612-31.18-8.612-52.233 0-21.15 2.855-38.576 8.613-52.33 5.754-13.75 12.987-24.187 21.604-31.27 8.658-7.08 17.275-11.871 25.858-14.338 8.621-2.463 16.58-3.717 23.921-3.717zm-.041 169.121c5.212 0 10.395-1.07 15.612-3.175 5.18-2.112 10.05-5.779 14.53-10.891 4.524-5.146 8.158-12.138 10.941-20.967 2.787-8.871 4.17-19.667 4.17-32.433 0-12.813-1.383-23.659-4.17-32.526-2.783-8.87-6.417-15.862-10.9-20.966-4.483-5.154-9.346-8.784-14.57-10.888-5.218-2.104-10.4-3.183-15.613-3.183-5.18 0-10.396 1.08-15.609 3.23-5.225 2.145-10.096 5.732-14.575 10.84-4.479 5.105-8.075 12.097-10.858 20.967-2.783 8.867-4.17 19.713-4.17 32.526 0 12.766 1.387 23.562 4.17 32.433 2.783 8.829 6.417 15.82 10.904 20.925 4.48 5.104 9.346 8.733 14.567 10.887 5.212 2.15 10.391 3.221 15.57 3.221zM672.338 825.809h-35.68v-193h35.68v78.487l65.258-78.487h46.234l-69.775 79.02 73.783 113.98h-45.967l-52.9-84.675-16.633 19.354v65.321zm169.288 0h-35.684v-193h78.15c10.875 0 20.325 2.508 28.338 7.52 7.98 5.017 14.13 12.188 18.38 21.505 4.245 9.362 6.35 20.296 6.35 32.796 0 7.75-1.555 16.35-4.605 25.804-3.058 9.454-8.654 17.742-16.792 24.954-8.179 7.217-19.212 10.796-33.179 10.796h-40.958v69.625zm33.141-102.913c11.43 0 18.771-3.041 21.942-9.137 3.175-6.092 4.77-13.125 4.77-21.054 0-9.363-2.466-16.13-7.428-20.342-4.963-4.167-12.975-6.27-24.088-6.27h-28.337v56.803h33.141zm215.759-55.995H999.75v40.679h83.383v34.091H999.75v50.042h94.858v34.096H964.78v-193h125.747V666.9zm39.533 62.45v-96.542h117.838v158.904h16.67v70.113h-33.304v-36.017h-94.337v36.017h-33.304v-70.113c5.754 0 10.591-1.883 14.45-5.692 3.887-3.804 6.862-10.345 8.883-19.579 2.07-9.225 3.104-21.587 3.104-37.091zm82.154 62.362V666.901h-48.854v62.45c0 17.879-1.116 31.358-3.375 40.32-2.262 9.005-5.558 16.35-9.925 22.042h62.154zm101.926-24.508h.479l67.908-134.396h37.554v193h-33.304v-137.63h-.475l-69.78 137.63h-35.678v-193h33.296v134.396zm213.104 58.604h-35.683V666.901h-51.68v-34.092h139.084V666.9h-51.721v158.908zm134.192-198.113c7.579 0 15.754 1.255 24.525 3.717 8.77 2.467 17.625 7.217 26.475 14.25 8.891 7.075 16.312 17.475 22.225 31.27 5.912 13.8 8.891 31.268 8.891 52.418 0 21.054-2.979 38.529-8.891 52.325-5.913 13.8-13.38 24.241-22.3 31.275-8.938 7.079-17.825 11.82-26.634 14.287-8.854 2.463-16.95 3.671-24.291 3.671-7.342 0-15.446-1.25-24.334-3.717-8.846-2.462-17.783-7.254-26.712-14.337-8.93-7.075-16.354-17.513-22.263-31.267-5.912-13.75-8.85-31.183-8.85-52.237 0-21.15 2.938-38.575 8.85-52.33 5.909-13.75 13.334-24.187 22.18-31.27 8.9-7.075 17.745-11.871 26.558-14.338 8.854-2.462 17.025-3.717 24.57-3.717zm-.038 169.121c5.35 0 10.675-1.07 16.03-3.175 5.32-2.112 10.316-5.779 14.924-10.891 4.642-5.146 8.375-12.134 11.234-20.963 2.854-8.875 4.287-19.67 4.287-32.437 0-12.813-1.433-23.659-4.287-32.525-2.859-8.871-6.592-15.859-11.192-20.963-4.604-5.158-9.604-8.787-14.967-10.892-5.354-2.104-10.679-3.183-16.029-3.183-5.32 0-10.683 1.08-16.042 3.23-5.354 2.145-10.358 5.733-14.966 10.845-4.6 5.104-8.284 12.092-11.146 20.963-2.863 8.866-4.288 19.712-4.288 32.525 0 12.766 1.425 23.562 4.288 32.437 2.862 8.83 6.583 15.817 11.192 20.921 4.6 5.104 9.604 8.733 14.966 10.887 5.35 2.15 10.675 3.221 15.996 3.221zm110.78-164.008h83.108c12.979 0 23.379 2.55 31.237 7.7 7.859 5.154 13.409 11.467 16.592 18.954 3.213 7.48 4.796 15.092 4.796 22.8 0 12.058-2.017 20.792-6.025 26.254-4.058 5.471-9.013 9.9-14.93 13.267 17.584 7.433 26.392 23.025 26.392 46.817 0 7.566-1.308 14.825-3.887 21.725-2.621 6.895-6.233 12.9-10.88 18.004-3.841 4.175-7.653 7.441-11.42 9.812-3.817 2.421-9.058 4.263-15.763 5.646-6.704 1.346-15.675 2.021-26.87 2.021h-72.35v-193zm34.287 159.712h43.82c18.26 0 27.384-9.408 27.384-28.27 0-7.884-2.458-13.759-7.417-17.609-4.966-3.85-11.079-5.779-18.341-5.779h-45.446v51.658zm0-84.179h41.912c7.542 0 13.617-1.796 18.263-5.333 4.637-3.542 6.983-8.963 6.983-16.221 0-7.525-2.183-12.854-6.587-15.992-4.367-3.133-10.875-4.704-19.571-4.704h-41v42.25zM1963.88 825.81h-37.625l60.925-193h41.237l60.209 193h-38.775l-10.996-39.83h-63.071l-11.904 39.83zm21.433-73.117h43.538l-21.155-76.296h-.47l-21.913 76.296zm160.709-13.441v86.558h-35.68v-193h35.68v73.158h66.716V632.81h35.684v193h-35.684v-86.558h-66.716zm168.883 27.954h.48l67.908-134.396h37.545v193h-33.3V688.18h-.47l-69.78 137.63h-35.683v-193h33.3v134.396zm276.246 58.604h-34.97v-75.538h-23.1l-43.618 75.538h-43.779l48.304-75.538c-11.67-2.954-21.791-9.633-30.279-20.025-8.537-10.345-12.787-23.3-12.787-38.845 0-10.209 2.225-19.842 6.675-28.85 4.404-8.959 10.712-16.171 18.891-21.588 8.175-5.425 17.575-8.154 28.25-8.154h86.413v193zm-34.97-108.058v-51.659h-44.572c-5.633 0-10.354 1.254-14.129 3.721-3.767 2.463-6.504 5.55-8.254 9.267-1.746 3.77-2.617 7.487-2.617 11.25 0 8.375 2.338 15.054 7.067 19.983 4.717 4.97 11.588 7.438 20.554 7.438h41.95z" fill-rule="nonzero"/></svg>