<svg width="18" height="21" fill="none" xmlns="http://www.w3.org/2000/svg"><path d="M15.304 3.901a8.852 8.852 0 00-6.308-2.615 8.93 8.93 0 00-7.73 13.38L0 19.285l4.729-1.242a8.892 8.892 0 004.263 1.085h.004c4.914 0 9.004-4.002 9.004-8.92 0-2.382-1.012-4.62-2.696-6.308zM8.996 17.626a7.4 7.4 0 01-3.777-1.032l-.269-.161-2.804.735.747-2.736-.177-.281a7.39 7.39 0 01-1.133-3.946C1.583 6.12 4.91 2.792 9 2.792c1.98 0 3.841.772 5.24 2.174 1.397 1.402 2.257 3.263 2.253 5.243 0 4.09-3.41 7.417-7.497 7.417zm4.066-5.552c-.22-.113-1.318-.651-1.523-.723-.205-.077-.353-.113-.502.112-.149.225-.575.723-.707.876-.129.149-.261.169-.482.056-1.31-.655-2.17-1.17-3.034-2.652-.229-.393.23-.365.655-1.217.073-.149.036-.277-.02-.39-.056-.112-.502-1.21-.687-1.655-.18-.434-.366-.374-.502-.382-.129-.008-.277-.008-.426-.008a.826.826 0 00-.595.277c-.205.225-.78.764-.78 1.86 0 1.097.8 2.158.909 2.307.112.149 1.57 2.399 3.809 3.367 1.414.61 1.969.663 2.676.558.43-.064 1.318-.538 1.502-1.06.185-.523.185-.969.129-1.061-.052-.1-.201-.157-.422-.265z" fill="#31BB31"/></svg>